<?xml version="1.0" standalone="no"?>
<!DOCTYPE svg PUBLIC "-//W3C//DTD SVG 20010904//EN"
 "http://www.w3.org/TR/2001/REC-SVG-20010904/DTD/svg10.dtd">
<svg version="1.0" xmlns="http://www.w3.org/2000/svg"
 width="368.000000pt" height="368.000000pt" viewBox="0 0 368.000000 368.000000"
 preserveAspectRatio="xMidYMid meet">

<g transform="translate(0.000000,368.000000) scale(0.100000,-0.100000)"
fill="#000000" stroke="none">
<path d="M1620 3530 c-14 -4 -45 -8 -69 -9 -25 -1 -58 -5 -75 -10 -17 -5 -65
-17 -106 -26 -108 -24 -227 -62 -244 -77 -17 -15 -44 -9 -114 25 -38 19 -93
42 -123 52 -30 9 -61 21 -71 26 -22 11 -239 23 -272 15 l-26 -6 0 -251 c0
-171 -4 -257 -12 -272 -6 -12 -33 -51 -59 -87 -60 -83 -96 -147 -165 -290 -86
-178 -107 -239 -147 -415 -41 -178 -47 -233 -47 -408 0 -288 35 -475 144 -762
50 -132 203 -328 336 -429 54 -42 182 -121 230 -143 94 -42 193 -77 293 -102
42 -11 73 -24 74 -32 2 -8 -19 -38 -46 -68 -58 -64 -117 -171 -108 -195 13
-32 33 -14 70 62 49 101 164 222 182 192 14 -22 337 -230 358 -230 17 0 34 14
57 47 56 77 91 113 111 113 19 0 119 -123 119 -147 0 -6 9 -15 21 -18 28 -9
85 32 173 126 l71 77 78 12 c89 13 95 11 176 -64 45 -42 131 -156 131 -173 0
-6 9 -18 20 -28 19 -17 20 -17 26 0 12 30 -45 124 -123 204 -40 41 -73 78 -73
82 0 5 12 9 27 9 25 0 58 8 128 32 17 5 58 16 91 24 34 7 86 24 115 37 30 14
77 35 104 47 103 45 122 55 190 98 125 80 230 177 296 274 22 31 39 64 39 72
0 9 4 16 9 16 5 0 14 14 20 32 6 17 17 39 25 47 18 21 26 60 15 67 -5 3 -9 -2
-9 -10 0 -9 -14 -42 -32 -73 -17 -32 -36 -68 -42 -80 -6 -13 -14 -23 -18 -23
-5 0 -8 -4 -8 -9 0 -10 -54 -74 -115 -136 -91 -93 -179 -152 -325 -221 -41
-19 -82 -39 -90 -43 -17 -9 -177 -58 -235 -72 -22 -6 -53 -14 -70 -19 -16 -5
-68 -16 -115 -25 -47 -8 -101 -20 -120 -25 -19 -5 -156 -14 -303 -21 -430 -20
-708 8 -992 98 -114 36 -285 114 -306 139 -6 8 -16 14 -21 14 -26 0 -149 106
-241 208 -36 40 -117 155 -117 166 0 3 -13 27 -28 53 -15 26 -34 64 -41 83 -7
19 -17 44 -21 55 -19 49 -39 115 -50 170 -6 33 -16 79 -21 102 -5 24 -13 117
-19 207 -10 188 0 358 31 511 21 106 76 294 90 310 5 5 9 15 9 23 0 22 113
253 170 348 55 90 77 104 82 52 4 -37 22 -47 37 -20 5 10 13 159 17 339 l7
321 34 4 c134 16 347 -58 526 -181 40 -28 81 -51 90 -51 31 0 17 25 -33 59
-28 18 -50 37 -50 41 0 14 25 26 90 45 36 10 70 22 75 25 6 4 26 10 45 13 19
4 67 13 105 22 161 36 492 57 590 36 28 -5 79 -15 115 -20 36 -6 83 -15 105
-20 22 -6 54 -13 70 -16 17 -4 39 -10 50 -15 11 -4 45 -16 75 -25 30 -9 69
-22 85 -30 102 -45 125 -59 130 -76 4 -10 11 -19 17 -19 5 0 55 25 110 56 129
73 245 126 265 122 33 -6 45 -92 48 -333 l3 -230 41 -68 c72 -118 187 -366
235 -507 8 -25 23 -65 31 -90 9 -24 20 -63 25 -85 5 -22 16 -67 24 -100 30
-116 61 -330 72 -505 4 -52 8 -97 10 -99 11 -12 2 320 -11 415 -20 150 -45
279 -63 325 -6 13 -15 44 -22 69 -7 25 -16 54 -20 65 -4 11 -25 65 -45 120
-51 135 -144 326 -212 435 -20 33 -21 46 -21 240 1 166 -2 219 -17 279 -33
137 -43 137 -293 12 -129 -64 -146 -69 -177 -48 -24 16 -134 61 -190 78 -22 6
-49 15 -60 19 -52 20 -170 47 -265 62 -84 12 -507 19 -540 8z m29 -3246 c47
-2 87 -6 89 -9 2 -2 -14 -23 -36 -47 -22 -24 -51 -56 -65 -73 l-25 -29 -115
77 c-64 42 -119 82 -123 88 -5 9 18 10 92 5 54 -4 137 -9 183 -12z m441 -16
c0 -6 -30 -41 -66 -77 l-66 -66 -19 25 c-11 14 -35 45 -54 68 -19 24 -35 48
-35 53 0 5 54 9 120 9 85 0 120 -3 120 -12z"/>
<path d="M674 3362 c2 -4 39 -25 80 -46 77 -40 166 -116 220 -188 25 -34 66
-52 66 -30 0 41 -169 201 -256 242 -57 28 -122 40 -110 22z"/>
<path d="M2940 3314 c-63 -42 -190 -185 -190 -214 0 -5 8 -10 18 -10 10 0 39
28 67 66 28 37 76 86 108 111 53 41 65 63 34 63 -7 0 -24 -7 -37 -16z"/>
<path d="M2445 2483 c-59 -12 -106 -37 -130 -69 -14 -19 -23 -39 -20 -45 4 -5
1 -23 -5 -40 -14 -33 1 -83 29 -98 100 -52 272 -73 336 -41 27 14 30 20 33 72
l3 57 37 -13 c26 -9 38 -20 40 -36 3 -21 7 -22 53 -17 26 3 58 11 70 17 21 12
21 12 -7 41 -32 34 -158 96 -218 109 -23 4 -65 13 -95 19 -70 14 -76 21 -20
22 24 1 51 2 59 3 8 2 40 4 70 5 44 2 50 5 30 11 -26 8 -230 11 -265 3z"/>
<path d="M1220 2468 c-125 -9 -188 -22 -255 -54 -67 -32 -78 -42 -99 -89 -10
-22 -30 -50 -45 -62 -34 -28 -21 -42 50 -49 52 -5 103 -19 199 -52 83 -29 266
-13 315 28 6 5 30 14 55 20 25 6 56 19 69 29 20 16 22 21 11 41 -7 14 -9 39
-5 66 5 36 3 46 -15 64 -52 52 -131 68 -280 58z m-285 -128 c-3 -5 -11 -10
-16 -10 -6 0 -7 5 -4 10 3 6 11 10 16 10 6 0 7 -4 4 -10z m473 -18 c25 -19 34
-74 15 -93 -12 -12 -43 25 -43 51 0 9 -7 26 -16 38 -14 20 -14 22 3 22 10 0
28 -8 41 -18z"/>
<path d="M2125 1790 c-28 -11 -72 -59 -84 -93 -15 -39 -14 -47 7 -45 9 2 38
-1 64 -5 104 -18 178 73 106 130 -19 15 -70 22 -93 13z"/>
<path d="M1735 1754 c-40 -21 -55 -42 -55 -76 0 -50 71 -71 165 -47 71 18 73
79 5 118 -44 25 -74 26 -115 5z"/>
<path d="M1460 1199 c0 -5 5 -7 10 -4 6 3 10 8 10 11 0 2 -4 4 -10 4 -5 0 -10
-5 -10 -11z"/>
<path d="M1866 1198 c-38 -22 -121 -48 -156 -48 -20 0 -40 -4 -46 -10 -11 -11
-133 4 -176 21 -24 10 -30 8 -48 -12 -25 -31 -25 -31 11 -70 l31 -33 277 0
c152 0 372 2 488 5 205 4 213 5 235 27 l23 23 -22 39 c-13 21 -20 46 -17 54 8
22 3 21 -73 -15 -60 -28 -73 -31 -147 -27 -68 3 -88 8 -125 32 -39 25 -48 27
-95 20 -56 -9 -56 -9 -106 0 -20 3 -43 1 -54 -6z"/>
<path d="M3502 1180 c0 -14 2 -19 5 -12 2 6 2 18 0 25 -3 6 -5 1 -5 -13z"/>
</g>
</svg>
